<svg width="64" height="64" viewBox="0 0 64 64" xmlns="http://www.w3.org/2000/svg">
<circle cx="32" cy="32" r="30" fill="#ffffff" stroke="#0e0e0e" stroke-width="2"/>
<clipPath id="c"><circle cx="32" cy="32" r="30"/></clipPath>
<g clip-path="url(#c)">
<polygon points="32.00,23.00 40.56,29.22 37.29,39.28 26.71,39.28 23.44,29.22" fill="#0e0e0e"/>
<polygon points="41.40,19.06 38.86,11.23 45.52,6.39 52.18,11.23 49.63,19.06" fill="#0e0e0e"/>
<polygon points="47.22,36.94 53.87,32.11 60.53,36.94 57.99,44.77 49.76,44.77" fill="#0e0e0e"/>
<polygon points="32.00,48.00 38.66,52.84 36.11,60.66 27.89,60.66 25.34,52.84" fill="#0e0e0e"/>
<polygon points="16.78,36.94 14.24,44.77 6.01,44.77 3.47,36.94 10.13,32.11" fill="#0e0e0e"/>
<polygon points="22.60,19.06 14.37,19.06 11.82,11.23 18.48,6.39 25.14,11.23" fill="#0e0e0e"/>
<line x1="32.00" y1="23.00" x2="32.00" y2="12.00" stroke="#0e0e0e" stroke-width="2" stroke-linecap="round"/>
<line x1="40.56" y1="29.22" x2="51.02" y2="25.82" stroke="#0e0e0e" stroke-width="2" stroke-linecap="round"/>
<line x1="37.29" y1="39.28" x2="43.76" y2="48.18" stroke="#0e0e0e" stroke-width="2" stroke-linecap="round"/>
<line x1="26.71" y1="39.28" x2="20.24" y2="48.18" stroke="#0e0e0e" stroke-width="2" stroke-linecap="round"/>
<line x1="23.44" y1="29.22" x2="12.98" y2="25.82" stroke="#0e0e0e" stroke-width="2" stroke-linecap="round"/>
</g>
</svg>
